<?xml version="1.0" encoding="UTF-8" standalone="no"?>
<!-- Created with Inkscape (http://www.inkscape.org/) -->

<svg
   width="1024"
   height="1024"
   viewBox="0 0 270.93333 270.93333"
   version="1.1"
   id="svg5"
   inkscape:version="1.2.1 (9c6d41e410, 2022-07-14, custom)"
   sodipodi:docname="gate_XOR.svg"
   xmlns:inkscape="http://www.inkscape.org/namespaces/inkscape"
   xmlns:sodipodi="http://sodipodi.sourceforge.net/DTD/sodipodi-0.dtd"
   xmlns="http://www.w3.org/2000/svg"
   xmlns:svg="http://www.w3.org/2000/svg">
  <sodipodi:namedview
     id="namedview7"
     pagecolor="#505050"
     bordercolor="#eeeeee"
     borderopacity="1"
     inkscape:showpageshadow="0"
     inkscape:pageopacity="0"
     inkscape:pagecheckerboard="0"
     inkscape:deskcolor="#505050"
     inkscape:document-units="px"
     showgrid="false"
     inkscape:zoom="0.56504558"
     inkscape:cx="292.89673"
     inkscape:cy="582.25391"
     inkscape:window-width="1916"
     inkscape:window-height="1033"
     inkscape:window-x="0"
     inkscape:window-y="18"
     inkscape:window-maximized="1"
     inkscape:current-layer="layer1" />
  <defs
     id="defs2" />
  <g
     inkscape:label="Layer 1"
     inkscape:groupmode="layer"
     id="layer1">
    <path
       id="rect5695"
       style="fill:#ffffff;stroke:#000000;stroke-width:5.63496;stroke-linecap:round;stroke-linejoin:bevel;stroke-opacity:1"
       d="M 8.0185033 37.572666 L -7.9322671 37.572666 L -7.9322671 176.64751 L -147.00675 176.64715 L -147.00711 192.59828 L -7.9322671 192.59828 L -7.9322671 331.67313 L 8.0188687 331.67276 L 8.0185033 192.59828 L 147.09335 192.59828 L 147.09335 176.64751 L 8.0185033 176.64751 L 8.0185033 37.572666 z "
       transform="rotate(-45)" />
    <path
       id="path524"
       style="fill:#ffffff;fill-opacity:1;stroke:#000000;stroke-width:5.38899;stroke-linecap:round;stroke-linejoin:bevel;stroke-dasharray:none;stroke-opacity:1;paint-order:normal"
       d="m 134.06836,36.125 c -12.3734,0.268983 -24.65759,2.782453 -36.169586,7.461775 -16.510731,6.625007 -31.090515,17.973921 -41.787748,32.220583 -9.088672,12.03179 -15.354045,26.088712 -18.154757,40.857562 -3.31784,17.15909 -2.001068,35.19201 3.8367,51.73156 5.044942,14.41133 13.431782,27.61842 24.44178,38.23356 11.598546,11.23483 25.842851,19.67371 41.373431,24.15916 19.18614,5.58914 40.07137,5.29947 59.10051,-1.05496 13.39908,-4.44221 25.87669,-11.73878 36.20346,-21.38176 14.55739,-13.48376 25.0194,-31.40675 29.38146,-50.71327 3.45351,-15.26554 3.3315,-31.34485 -0.53663,-46.54066 C 227.92135,95.865582 220.36412,81.45677 209.89972,69.687831 199.38365,57.778927 185.92608,48.402941 171.17593,42.753899 159.36201,38.227421 146.73667,36.000464 134.06836,36.125 Z" />
    <g
       aria-label="XOR"
       transform="scale(1.0134416,0.98673669)"
       id="text418"
       style="font-size:86.8195px;line-height:1.25;font-family:'TerminessTTF Nerd Font';-inkscape-font-specification:'TerminessTTF Nerd Font';letter-spacing:0px;word-spacing:0px;stroke-width:0.452184">
      <path
         d="m 70.175999,112.67222 v -2.51777 h 4.688253 l 9.723785,21.70488 h 3.820058 l 9.723784,-21.70488 h 4.688251 v 2.51777 l -11.981089,24.65674 11.981089,24.65674 v 2.51776 h -4.688251 l -9.723784,-21.70487 h -3.820058 l -9.723785,21.70487 h -4.688253 v -2.51776 l 11.981092,-24.65674 z"
         id="path6063" />
      <path
         d="m 113.58575,116.75274 6.59828,-6.59829 h 19.44757 l 6.59828,6.59829 v 41.15244 l -6.59828,6.59828 h -19.44757 l -6.59828,-6.59828 z m 25.78539,40.89198 v -40.63153 l -17.62436,-1.64957 -2.95186,7.5533 1.64957,34.7278 z"
         id="path6065" />
      <path
         d="m 156.9955,164.50346 v -54.34901 h 26.04585 l 6.59829,6.59829 v 19.44756 l -6.59829,6.59829 h -10.76561 l 18.40573,18.92665 -3.82006,3.82006 -24.39628,-23.87537 v 22.83353 z m 25.7854,-28.56361 v -18.92666 l -20.31577,-1.64957 v 22.2258 z"
         id="path6067" />
    </g>
  </g>
</svg>
