<?xml version="1.0" encoding="UTF-8" standalone="no"?>
<!-- Created with Inkscape (http://www.inkscape.org/) -->

<svg
   width="16"
   height="16"
   viewBox="0 0 4.2333332 4.2333335"
   version="1.1"
   id="svg3149"
   inkscape:version="1.2.2 (b0a8486541, 2022-12-01)"
   sodipodi:docname="settings.svg"
   xml:space="preserve"
   xmlns:inkscape="http://www.inkscape.org/namespaces/inkscape"
   xmlns:sodipodi="http://sodipodi.sourceforge.net/DTD/sodipodi-0.dtd"
   xmlns="http://www.w3.org/2000/svg"
   xmlns:svg="http://www.w3.org/2000/svg"><sodipodi:namedview
     id="namedview3151"
     pagecolor="#505050"
     bordercolor="#eeeeee"
     borderopacity="1"
     inkscape:pageshadow="0"
     inkscape:pageopacity="0"
     inkscape:pagecheckerboard="0"
     inkscape:document-units="px"
     showgrid="false"
     units="px"
     width="16px"
     inkscape:zoom="32"
     inkscape:cx="6.5"
     inkscape:cy="7.4375"
     inkscape:window-width="1920"
     inkscape:window-height="1053"
     inkscape:window-x="0"
     inkscape:window-y="0"
     inkscape:window-maximized="1"
     inkscape:current-layer="layer1"
     inkscape:lockguides="true"
     inkscape:showpageshadow="false"
     inkscape:deskcolor="#505050"
     shape-rendering="auto" /><defs
     id="defs3146" /><g
     inkscape:label="Layer 1"
     inkscape:groupmode="layer"
     id="layer1"><path
       id="path253"
       style="fill:#ffffff;stroke-width:0.283643;stroke-linecap:round;stroke-linejoin:round;paint-order:stroke fill markers"
       d="M 2.3741478,0 1.7555279,0.01218064 1.5969927,0.40085443 1.5997627,0.54536134 A 1.5818043,1.5894833 0 0 0 1.3331369,0.66550696 L 1.1984374,0.53262704 0.82260924,0.4196791 0.38746891,0.85929019 0.54489547,1.2485176 0.67737769,1.3797364 A 1.5818043,1.5894833 0 0 0 0.58591507,1.6349767 H 0.34700363 L 0,1.818794 V 2.4366855 L 0.38580595,2.6033391 H 0.6308149 A 1.5818043,1.5894833 0 0 0 0.74167868,2.8414157 L 0.53768933,3.0518089 0.42793419,3.4283019 0.87249793,3.8585007 1.2605211,3.6973838 1.4578586,3.4936346 a 1.5818043,1.5894833 0 0 0 0.1762735,0.069209 l 5.543e-4,0.3238945 0.1845882,0.3465952 0.6186199,-0.0011 L 2.6036358,3.8468781 2.6030814,3.5578642 A 1.5818043,1.5894833 0 0 0 2.8164943,3.4703806 L 3.0498625,3.6962765 3.4273537,3.8053488 3.8575051,3.3613084 3.6967527,2.9742956 3.5088385,2.7921393 A 1.5818043,1.5894833 0 0 0 3.594758,2.6005708 L 3.8863298,2.6000171 4.2333333,2.4161999 4.2322247,1.7977546 3.8458645,1.6322084 3.6391035,1.632762 A 1.5818043,1.5894833 0 0 0 3.5487495,1.3825049 L 3.7139365,1.2186196 3.8308978,0.84434119 3.3952032,0.40528377 3.0044083,0.55864935 2.8952075,0.66661429 A 1.5818043,1.5894833 0 0 0 2.5687138,0.52598303 L 2.5648335,0.34271947 Z M 2.1174981,0.75464724 C 2.4581011,0.74578935 2.8053579,0.87638303 3.0459822,1.1211743 3.9210244,1.9860917 2.9437823,3.6945466 1.7588538,3.317015 0.48378194,2.9962234 0.68855544,0.73461 2.0493169,0.75852291 c 0.022614,-0.001835 0.045474,-0.003285 0.068181,-0.003876 z" /><g
       aria-label="I"
       transform="scale(1.0000246,0.99997541)"
       id="text370"
       style="font-size:2.82215px;line-height:1.25;stroke-width:0.264576"><path
         d="M 1.8520377,1.411181 V 1.2333856 H 2.3826019 V 1.411181 H 2.2048064 V 2.822256 H 2.3826019 V 3.0000515 H 1.8520377 V 2.822256 H 2.0298331 V 1.411181 Z"
         style="font-family:'TerminessTTF Nerd Font Mono';-inkscape-font-specification:'TerminessTTF Nerd Font Mono';fill:#ffffff"
         id="path422" /></g></g></svg>
